# xmcd CD database file
#
# Track frame offsets:
#	150
#	16672
#	29505
#	42664
#	59510
#	76130
#	92482
#	104760
#	119225
#	138320
#
# Disc length: 2036 seconds
#
# Revision: 0
# Processed by: cddbd v1.4PL0 Copyright (c) Steve Scherf et al.
# Submitted via: CDex 1.50Beta7
#
DISCID=8807f20a
DTITLE=Various Artist - This Is Country '98
DYEAR=1998
DGENRE=Country
TTITLE0=Wade Hayes/Old Enough To Know Better
TTITLE1=Patty Loveless/I Try To Think About Elvis
TTITLE2=Collin Raye/My Kind Of Girl
TTITLE3=Mark Chestnutt/Gonna Get A Life
TTITLE4=Ty Herndon/What Mattered Most
TTITLE5=Joe Diffie/Pickup Man
TTITLE6=Ty England/Should've Asked Her Faster
TTITLE7=Diamond Rio/Holdin'
TTITLE8=Lee Roy Parnell/Hearts Desire
TTITLE9=Ricochet/Love Is Stronger Than Pride
EXTD=YEAR: 1998
EXTT0=
EXTT1=
EXTT2=
EXTT3=
EXTT4=
EXTT5=
EXTT6=
EXTT7=
EXTT8=
EXTT9=
PLAYORDER=
